<?xml version="1.0" encoding="UTF-8" standalone="no"?>
<svg width="24" height="24" viewBox="0 0 24 24" version="1.1" xmlns="http://www.w3.org/2000/svg"><path d="m 18.249257,11.246827 c 0.374786,1.6e-5 0.692029,0.276696 0.743,0.648 0.01543,0.200194 0.0047,0.401382 0.007,0.602 3.24e-4,3.5338 -2.724947,6.469714 -6.249001,6.732 l -10e-4,1.514291 c -2.86e-4,0.933725 -1.365727,1.02701 -1.493,0.102 -0.0174,-0.789275 -0.007,-0.826535 -0.007,-1.616291 -3.4342313,-0.255033 -6.1258713,-3.054407 -6.2459993,-6.496 -0.0066,-0.24529 -0.0028,-0.490663 -0.004,-0.736 2.86e-4,-0.933725 1.365727,-1.02701 1.493,-0.102 0.01543,0.200194 0.0047,0.401382 0.007,0.602 -2.39e-4,2.815645 2.220739,5.130156 5.0339993,5.246 0.238617,0.0069 0.477331,0.0027 0.716,0.004 2.815646,2.39e-4 5.130157,-2.220739 5.246001,-5.034 0.0069,-0.238617 0.0027,-0.477331 0.004,-0.716 0,-0.414214 0.335786,-0.75 0.75,-0.75 z M 11.999256,2.5069361 c 2.209139,0 4.000001,1.7908611 4.000001,3.9999998 v 5.7398911 c 0,5.333331 -8.0000003,5.333331 -8.0000003,0 V 6.5069359 c 0,-2.2091387 1.79086,-3.9999998 3.9999993,-3.9999998 z m 0,1.5000001 c -1.380712,0 -2.4999993,1.119288 -2.4999993,2.4999997 v 5.7398911 c 0,3.333332 4.9999993,3.333332 4.9999993,0 V 6.5069359 c 0,-1.3807117 -1.119288,-2.4999997 -2.5,-2.4999997 z" fill="#212121" stroke="#333333" stroke-width="0.25" /></svg>
